<mxfile host="65bd71144e">
    <diagram name="Page-1" id="58cdce13-f638-feb5-8d6f-7d28b1aa9fa0">
        <mxGraphModel dx="2939" dy="816" grid="1" gridSize="10" guides="1" tooltips="1" connect="1" arrows="1" fold="1" page="1" pageScale="0.3" pageWidth="850" pageHeight="1100" background="none" math="0" shadow="0">
            <root>
                <mxCell id="0"/>
                <mxCell id="1" parent="0"/>
                <mxCell id="EBAEPOP74e6jBe3k4iva-1" value="EMPTY" style="swimlane;fontStyle=1;align=center;verticalAlign=middle;childLayout=stackLayout;horizontal=1;startSize=30;horizontalStack=0;resizeParent=0;resizeLast=1;container=0;fontColor=#000000;collapsible=0;rounded=1;arcSize=30;strokeColor=#ff0000;fillColor=#998A8A;swimlaneFillColor=#998A8A;dropTarget=0;" parent="1" vertex="1">
                    <mxGeometry x="-1330.0900000000001" y="170" width="160" height="60" as="geometry"/>
                </mxCell>
                <mxCell id="EBAEPOP74e6jBe3k4iva-2" value="Stop all shooter motors" style="text;html=1;strokeColor=none;fillColor=none;align=center;verticalAlign=middle;spacingLeft=4;spacingRight=4;whiteSpace=wrap;overflow=hidden;rotatable=0;fontColor=#000000;" parent="EBAEPOP74e6jBe3k4iva-1" vertex="1">
                    <mxGeometry y="30" width="160" height="30" as="geometry"/>
                </mxCell>
                <mxCell id="32" style="edgeStyle=none;html=1;strokeColor=#FF0000;fontColor=#FF0000;" parent="1" source="EBAEPOP74e6jBe3k4iva-36" target="EBAEPOP74e6jBe3k4iva-39" edge="1">
                    <mxGeometry relative="1" as="geometry"/>
                </mxCell>
                <mxCell id="EBAEPOP74e6jBe3k4iva-36" value="If first sensor detects an object" style="text;html=1;align=center;verticalAlign=middle;resizable=0;points=[];autosize=1;strokeColor=default;fillColor=none;rounded=1;" parent="1" vertex="1">
                    <mxGeometry x="-790.0900000000001" y="185" width="190" height="30" as="geometry"/>
                </mxCell>
                <mxCell id="EBAEPOP74e6jBe3k4iva-39" value="ACQUIRING BOTTOM" style="swimlane;fontStyle=1;align=center;verticalAlign=middle;childLayout=stackLayout;horizontal=1;startSize=30;horizontalStack=0;resizeParent=0;resizeLast=1;container=0;fontColor=#000000;collapsible=0;rounded=1;arcSize=30;strokeColor=#ff0000;fillColor=#998A8A;swimlaneFillColor=#998A8A;dropTarget=0;" parent="1" vertex="1">
                    <mxGeometry x="-775.0899999999999" y="260" width="160" height="80" as="geometry"/>
                </mxCell>
                <mxCell id="EBAEPOP74e6jBe3k4iva-40" value="Ground feed motor on&lt;br&gt;Bottom feed motor on&lt;br&gt;Top feed motor on&lt;br&gt;Belt motor on" style="text;html=1;strokeColor=none;fillColor=none;align=center;verticalAlign=middle;spacingLeft=4;spacingRight=4;whiteSpace=wrap;overflow=hidden;rotatable=0;fontColor=#000000;" parent="EBAEPOP74e6jBe3k4iva-39" vertex="1">
                    <mxGeometry y="30" width="160" height="50" as="geometry"/>
                </mxCell>
                <mxCell id="57" style="edgeStyle=none;rounded=1;html=1;strokeColor=#FF0000;fontColor=#FF0000;" parent="1" source="EBAEPOP74e6jBe3k4iva-43" target="5" edge="1">
                    <mxGeometry relative="1" as="geometry"/>
                </mxCell>
                <mxCell id="EBAEPOP74e6jBe3k4iva-43" value="If second sensor detects an object" style="text;html=1;align=center;verticalAlign=middle;resizable=0;points=[];autosize=1;strokeColor=default;fillColor=none;rounded=1;" parent="1" vertex="1">
                    <mxGeometry x="-1092.09" y="270" width="210" height="30" as="geometry"/>
                </mxCell>
                <mxCell id="19" style="edgeStyle=none;html=1;strokeColor=#FF0000;fontColor=#FF0000;" parent="1" source="EBAEPOP74e6jBe3k4iva-52" target="EBAEPOP74e6jBe3k4iva-53" edge="1">
                    <mxGeometry relative="1" as="geometry">
                        <Array as="points">
                            <mxPoint x="-1230" y="450"/>
                        </Array>
                    </mxGeometry>
                </mxCell>
                <mxCell id="EBAEPOP74e6jBe3k4iva-52" value="If sensor two does not detect an object" style="text;html=1;align=center;verticalAlign=middle;resizable=0;points=[];autosize=1;strokeColor=default;fillColor=none;rounded=1;glass=0;shadow=0;" parent="1" vertex="1">
                    <mxGeometry x="-860.0899999999999" y="435" width="230" height="30" as="geometry"/>
                </mxCell>
                <mxCell id="EBAEPOP74e6jBe3k4iva-53" value="LOADED" style="swimlane;fontStyle=1;align=center;verticalAlign=middle;childLayout=stackLayout;horizontal=1;startSize=30;horizontalStack=0;resizeParent=0;resizeLast=1;container=0;fontColor=#000000;collapsible=0;rounded=1;arcSize=30;strokeColor=#ff0000;fillColor=#998A8A;swimlaneFillColor=#998A8A;dropTarget=0;" parent="1" vertex="1">
                    <mxGeometry x="-1310.0900000000001" y="480" width="160" height="80" as="geometry"/>
                </mxCell>
                <mxCell id="EBAEPOP74e6jBe3k4iva-54" value="Stop all shooter motors" style="text;html=1;strokeColor=none;fillColor=none;align=center;verticalAlign=middle;spacingLeft=4;spacingRight=4;whiteSpace=wrap;overflow=hidden;rotatable=0;fontColor=#000000;" parent="EBAEPOP74e6jBe3k4iva-53" vertex="1">
                    <mxGeometry y="30" width="160" height="50" as="geometry"/>
                </mxCell>
                <mxCell id="EBAEPOP74e6jBe3k4iva-59" value="Ground feed motor off&lt;br&gt;Bottom feed motor off&lt;br&gt;Belt motor off" style="text;html=1;strokeColor=none;fillColor=none;align=center;verticalAlign=middle;spacingLeft=4;spacingRight=4;whiteSpace=wrap;overflow=hidden;rotatable=0;fontColor=#000000;" parent="EBAEPOP74e6jBe3k4iva-53" vertex="1">
                    <mxGeometry y="80" width="160" as="geometry"/>
                </mxCell>
                <mxCell id="EBAEPOP74e6jBe3k4iva-60" value="Ground feed motor off&lt;br&gt;Bottom feed motor off&lt;br&gt;Belt motor off" style="text;html=1;strokeColor=none;fillColor=none;align=center;verticalAlign=middle;spacingLeft=4;spacingRight=4;whiteSpace=wrap;overflow=hidden;rotatable=0;fontColor=#000000;" parent="EBAEPOP74e6jBe3k4iva-53" vertex="1">
                    <mxGeometry y="80" width="160" as="geometry"/>
                </mxCell>
                <mxCell id="40" style="edgeStyle=none;html=1;strokeColor=#33FFFF;fontColor=#FF0000;" parent="1" source="EBAEPOP74e6jBe3k4iva-65" target="EBAEPOP74e6jBe3k4iva-130" edge="1">
                    <mxGeometry relative="1" as="geometry"/>
                </mxCell>
                <mxCell id="EBAEPOP74e6jBe3k4iva-65" value="Shoot speaker button pressed (currentEvent)" style="text;html=1;align=center;verticalAlign=middle;resizable=0;points=[];autosize=1;strokeColor=default;fillColor=none;fontFamily=Helvetica;fontSize=11;fontColor=default;rounded=1;" parent="1" vertex="1">
                    <mxGeometry x="-1092.0900000000001" y="503" width="240" height="30" as="geometry"/>
                </mxCell>
                <mxCell id="28" style="edgeStyle=none;html=1;strokeColor=#00FF00;fontColor=#FF0000;" parent="1" source="EBAEPOP74e6jBe3k4iva-67" target="11" edge="1">
                    <mxGeometry relative="1" as="geometry"/>
                </mxCell>
                <mxCell id="EBAEPOP74e6jBe3k4iva-67" value="Prepare for amp button pressed (currentEvent)" style="text;html=1;align=center;verticalAlign=middle;resizable=0;points=[];autosize=1;strokeColor=default;fillColor=none;fontFamily=Helvetica;fontSize=11;fontColor=default;rounded=1;" parent="1" vertex="1">
                    <mxGeometry x="-1355.0900000000001" y="600" width="250" height="30" as="geometry"/>
                </mxCell>
                <mxCell id="29" style="edgeStyle=none;html=1;strokeColor=#00FF00;fontColor=#FF0000;" parent="1" source="EBAEPOP74e6jBe3k4iva-94" target="EBAEPOP74e6jBe3k4iva-97" edge="1">
                    <mxGeometry relative="1" as="geometry">
                        <Array as="points">
                            <mxPoint x="-1000" y="720"/>
                            <mxPoint x="-980" y="720"/>
                        </Array>
                    </mxGeometry>
                </mxCell>
                <mxCell id="EBAEPOP74e6jBe3k4iva-94" value="Bender angle is correct" style="text;html=1;align=center;verticalAlign=middle;resizable=0;points=[];autosize=1;strokeColor=default;fillColor=none;fontFamily=Helvetica;fontSize=11;fontColor=default;rounded=1;" parent="1" vertex="1">
                    <mxGeometry x="-1070.0000000000002" y="665" width="140" height="30" as="geometry"/>
                </mxCell>
                <mxCell id="EBAEPOP74e6jBe3k4iva-97" value="BENDER LOAD INTERNAL LOAD BENDER" style="swimlane;fontStyle=1;align=center;verticalAlign=middle;childLayout=stackLayout;horizontal=1;startSize=30;horizontalStack=0;resizeParent=0;resizeLast=1;container=0;fontColor=#000000;collapsible=0;rounded=1;arcSize=30;strokeColor=#00FF00;fillColor=#998A8A;swimlaneFillColor=#998A8A;dropTarget=0;fontFamily=Helvetica;fontSize=11;" parent="1" vertex="1">
                    <mxGeometry x="-1130" y="750" width="300" height="80" as="geometry"/>
                </mxCell>
                <mxCell id="EBAEPOP74e6jBe3k4iva-98" value="Belt, Flywheel, Feedwheel, &amp;amp; Bender motor on slow" style="text;html=1;strokeColor=none;fillColor=none;align=center;verticalAlign=middle;spacingLeft=4;spacingRight=4;whiteSpace=wrap;overflow=hidden;rotatable=0;fontColor=#000000;fontFamily=Helvetica;fontSize=11;" parent="EBAEPOP74e6jBe3k4iva-97" vertex="1">
                    <mxGeometry y="30" width="300" height="50" as="geometry"/>
                </mxCell>
                <mxCell id="21" style="edgeStyle=none;html=1;strokeColor=#00FF00;fontColor=#FF0000;entryX=0.25;entryY=0;entryDx=0;entryDy=0;" parent="1" source="EBAEPOP74e6jBe3k4iva-99" target="7" edge="1">
                    <mxGeometry relative="1" as="geometry">
                        <Array as="points">
                            <mxPoint x="-1245" y="770"/>
                            <mxPoint x="-1395" y="770"/>
                        </Array>
                    </mxGeometry>
                </mxCell>
                <mxCell id="EBAEPOP74e6jBe3k4iva-99" value="Sensor 3 detects an object" style="text;html=1;align=center;verticalAlign=middle;resizable=0;points=[];autosize=1;strokeColor=default;fillColor=none;fontFamily=Helvetica;fontSize=11;fontColor=default;rounded=1;" parent="1" vertex="1">
                    <mxGeometry x="-1320.0900000000001" y="800" width="150" height="30" as="geometry"/>
                </mxCell>
                <mxCell id="43" style="edgeStyle=none;html=1;strokeColor=#00FF00;fontColor=#FF0000;" parent="1" source="EBAEPOP74e6jBe3k4iva-105" target="EBAEPOP74e6jBe3k4iva-106" edge="1">
                    <mxGeometry relative="1" as="geometry"/>
                </mxCell>
                <mxCell id="EBAEPOP74e6jBe3k4iva-105" value="Sensor 3 does not detect an object" style="text;html=1;align=center;verticalAlign=middle;resizable=0;points=[];autosize=1;strokeColor=default;fillColor=none;fontFamily=Helvetica;fontSize=11;fontColor=default;rounded=1;" parent="1" vertex="1">
                    <mxGeometry x="-1105.0900000000001" y="875" width="190" height="30" as="geometry"/>
                </mxCell>
                <mxCell id="EBAEPOP74e6jBe3k4iva-106" value="BENDER LOAD INTERNAL LOADED" style="swimlane;fontStyle=1;align=center;verticalAlign=middle;childLayout=stackLayout;horizontal=1;startSize=30;horizontalStack=0;resizeParent=0;resizeLast=1;container=0;fontColor=#000000;collapsible=0;rounded=1;arcSize=30;strokeColor=#00FF00;fillColor=#998A8A;swimlaneFillColor=#998A8A;dropTarget=0;fontFamily=Helvetica;fontSize=11;" parent="1" vertex="1">
                    <mxGeometry x="-880.0899999999999" y="850" width="220.09" height="80" as="geometry"/>
                </mxCell>
                <mxCell id="EBAEPOP74e6jBe3k4iva-107" value="Running shooter motors off&lt;br&gt;Set bender position" style="text;html=1;strokeColor=none;fillColor=none;align=center;verticalAlign=middle;spacingLeft=4;spacingRight=4;whiteSpace=wrap;overflow=hidden;rotatable=0;fontColor=#000000;fontFamily=Helvetica;fontSize=11;" parent="EBAEPOP74e6jBe3k4iva-106" vertex="1">
                    <mxGeometry y="30" width="220.09" height="50" as="geometry"/>
                </mxCell>
                <mxCell id="25" style="edgeStyle=none;html=1;strokeColor=#00FF00;fontColor=#FF0000;rounded=1;" parent="1" source="EBAEPOP74e6jBe3k4iva-110" target="EBAEPOP74e6jBe3k4iva-112" edge="1">
                    <mxGeometry relative="1" as="geometry"/>
                </mxCell>
                <mxCell id="EBAEPOP74e6jBe3k4iva-110" value="Bender angle is correct" style="text;html=1;align=center;verticalAlign=middle;resizable=0;points=[];autosize=1;strokeColor=default;fillColor=none;fontFamily=Helvetica;fontSize=11;fontColor=default;rounded=1;" parent="1" vertex="1">
                    <mxGeometry x="-870.0899999999999" y="975" width="140" height="30" as="geometry"/>
                </mxCell>
                <mxCell id="EBAEPOP74e6jBe3k4iva-112" value="READY FOR FIRE AMP" style="swimlane;fontStyle=1;align=center;verticalAlign=middle;childLayout=stackLayout;horizontal=1;startSize=30;horizontalStack=0;resizeParent=0;resizeLast=1;container=0;fontColor=#000000;collapsible=0;rounded=1;arcSize=30;strokeColor=#00FF00;fillColor=#998A8A;swimlaneFillColor=#998A8A;dropTarget=0;fontFamily=Helvetica;fontSize=11;" parent="1" vertex="1">
                    <mxGeometry x="-1080.0900000000001" y="960" width="160" height="60" as="geometry"/>
                </mxCell>
                <mxCell id="44" style="edgeStyle=none;rounded=1;html=1;strokeColor=#00FF00;fontColor=#FF0000;" parent="1" source="EBAEPOP74e6jBe3k4iva-116" target="EBAEPOP74e6jBe3k4iva-119" edge="1">
                    <mxGeometry relative="1" as="geometry"/>
                </mxCell>
                <mxCell id="EBAEPOP74e6jBe3k4iva-116" value="Amp shoot button (currentEvent)" style="text;html=1;align=center;verticalAlign=middle;resizable=0;points=[];autosize=1;strokeColor=default;fillColor=none;fontFamily=Helvetica;fontSize=11;fontColor=default;rounded=1;" parent="1" vertex="1">
                    <mxGeometry x="-1335.0900000000001" y="975" width="180" height="30" as="geometry"/>
                </mxCell>
                <mxCell id="EBAEPOP74e6jBe3k4iva-119" value="BENDER SHOOT" style="swimlane;fontStyle=1;align=center;verticalAlign=middle;childLayout=stackLayout;horizontal=1;startSize=30;horizontalStack=0;resizeParent=0;resizeLast=1;container=0;fontColor=#000000;collapsible=0;rounded=1;arcSize=30;strokeColor=#00FF00;fillColor=#998A8A;swimlaneFillColor=#998A8A;dropTarget=0;fontFamily=Helvetica;fontSize=11;" parent="1" vertex="1">
                    <mxGeometry x="-1325.0900000000001" y="1040" width="160" height="60" as="geometry"/>
                </mxCell>
                <mxCell id="EBAEPOP74e6jBe3k4iva-120" value="Bender motor on" style="text;html=1;strokeColor=none;fillColor=none;align=center;verticalAlign=middle;spacingLeft=4;spacingRight=4;whiteSpace=wrap;overflow=hidden;rotatable=0;fontColor=#000000;fontFamily=Helvetica;fontSize=11;" parent="EBAEPOP74e6jBe3k4iva-119" vertex="1">
                    <mxGeometry y="30" width="160" height="30" as="geometry"/>
                </mxCell>
                <mxCell id="18" style="edgeStyle=none;html=1;strokeColor=#FF0000;fontColor=#FF0000;" parent="1" source="EBAEPOP74e6jBe3k4iva-125" target="EBAEPOP74e6jBe3k4iva-1" edge="1">
                    <mxGeometry relative="1" as="geometry">
                        <mxPoint x="-1360" y="390" as="targetPoint"/>
                        <Array as="points">
                            <mxPoint x="-1500" y="1175"/>
                            <mxPoint x="-1500" y="280"/>
                            <mxPoint x="-1250" y="280"/>
                        </Array>
                    </mxGeometry>
                </mxCell>
                <mxCell id="EBAEPOP74e6jBe3k4iva-125" value="A set number of seconds have passed. (Half a second?)" style="text;html=1;align=center;verticalAlign=middle;resizable=0;points=[];autosize=1;strokeColor=default;fillColor=none;fontFamily=Helvetica;fontSize=11;fontColor=default;rounded=1;" parent="1" vertex="1">
                    <mxGeometry x="-1395.0900000000001" y="1160" width="300" height="30" as="geometry"/>
                </mxCell>
                <mxCell id="EBAEPOP74e6jBe3k4iva-130" value="FIRE SPEAKER PREP" style="swimlane;fontStyle=1;align=center;verticalAlign=middle;childLayout=stackLayout;horizontal=1;startSize=30;horizontalStack=0;resizeParent=0;resizeLast=1;container=0;fontColor=#000000;collapsible=0;rounded=1;arcSize=30;strokeColor=#33FFFF;fillColor=#998A8A;swimlaneFillColor=#998A8A;dropTarget=0;fontFamily=Helvetica;fontSize=11;fillStyle=auto;" parent="1" vertex="1">
                    <mxGeometry x="-825.0899999999999" y="488" width="180" height="60" as="geometry"/>
                </mxCell>
                <mxCell id="EBAEPOP74e6jBe3k4iva-131" value="Flywheel on&lt;br&gt;Ensure bender is out of the way" style="text;html=1;strokeColor=none;fillColor=none;align=center;verticalAlign=middle;spacingLeft=4;spacingRight=4;whiteSpace=wrap;overflow=hidden;rotatable=0;fontColor=#000000;fontFamily=Helvetica;fontSize=11;" parent="EBAEPOP74e6jBe3k4iva-130" vertex="1">
                    <mxGeometry y="30" width="180" height="30" as="geometry"/>
                </mxCell>
                <mxCell id="42" style="edgeStyle=none;html=1;strokeColor=#33FFFF;fontColor=#FF0000;" parent="1" source="EBAEPOP74e6jBe3k4iva-135" target="EBAEPOP74e6jBe3k4iva-137" edge="1">
                    <mxGeometry relative="1" as="geometry"/>
                </mxCell>
                <mxCell id="EBAEPOP74e6jBe3k4iva-135" value="Flywheel motor is sufficiently fast and bender is out of the way" style="text;html=1;align=center;verticalAlign=middle;resizable=0;points=[];autosize=1;strokeColor=default;fillColor=none;fontFamily=Helvetica;fontSize=11;fontColor=default;rounded=1;" parent="1" vertex="1">
                    <mxGeometry x="-900.0899999999999" y="580" width="330" height="30" as="geometry"/>
                </mxCell>
                <mxCell id="EBAEPOP74e6jBe3k4iva-137" value="FIRE_SPEAKER" style="swimlane;fontStyle=1;align=center;verticalAlign=middle;childLayout=stackLayout;horizontal=1;startSize=30;horizontalStack=0;resizeParent=0;resizeLast=1;container=0;fontColor=#000000;collapsible=0;rounded=1;arcSize=30;strokeColor=#33FFFF;fillColor=#998A8A;swimlaneFillColor=#998A8A;dropTarget=0;fontFamily=Helvetica;fontSize=11;" parent="1" vertex="1">
                    <mxGeometry x="-815.0899999999999" y="650" width="160" height="60" as="geometry"/>
                </mxCell>
                <mxCell id="EBAEPOP74e6jBe3k4iva-138" value="Belt motor on&lt;br&gt;Feedwheel motor on" style="text;html=1;strokeColor=none;fillColor=none;align=center;verticalAlign=middle;spacingLeft=4;spacingRight=4;whiteSpace=wrap;overflow=hidden;rotatable=0;fontColor=#000000;fontFamily=Helvetica;fontSize=11;" parent="EBAEPOP74e6jBe3k4iva-137" vertex="1">
                    <mxGeometry y="30" width="160" height="30" as="geometry"/>
                </mxCell>
                <mxCell id="5" value="ACQUIRING TOP" style="swimlane;fontStyle=1;align=center;verticalAlign=middle;childLayout=stackLayout;horizontal=1;startSize=30;horizontalStack=0;resizeParent=0;resizeLast=1;container=0;fontColor=#000000;collapsible=0;rounded=1;arcSize=30;strokeColor=#ff0000;fillColor=#998A8A;swimlaneFillColor=#998A8A;dropTarget=0;" parent="1" vertex="1">
                    <mxGeometry x="-1067.09" y="330" width="160" height="80" as="geometry"/>
                </mxCell>
                <mxCell id="6" value="&amp;nbsp; &amp;nbsp; &amp;nbsp;" style="text;html=1;strokeColor=none;fillColor=none;align=center;verticalAlign=middle;spacingLeft=4;spacingRight=4;whiteSpace=wrap;overflow=hidden;rotatable=0;fontColor=#000000;" parent="5" vertex="1">
                    <mxGeometry y="30" width="160" height="50" as="geometry"/>
                </mxCell>
                <mxCell id="7" value="BENDER LOAD INTERNAL LOAD BENDER EXITING MIDDLE" style="swimlane;fontStyle=1;align=center;verticalAlign=middle;childLayout=stackLayout;horizontal=1;startSize=30;horizontalStack=0;resizeParent=0;resizeLast=1;container=0;fontColor=#000000;collapsible=0;rounded=1;arcSize=30;strokeColor=#00FF00;fillColor=#998A8A;swimlaneFillColor=#998A8A;dropTarget=0;fontFamily=Helvetica;fontSize=11;" parent="1" vertex="1">
                    <mxGeometry x="-1480" y="860" width="340" height="70" as="geometry"/>
                </mxCell>
                <mxCell id="8" value="&amp;nbsp; &amp;nbsp; &amp;nbsp; &amp;nbsp;" style="text;html=1;strokeColor=none;fillColor=none;align=center;verticalAlign=middle;spacingLeft=4;spacingRight=4;whiteSpace=wrap;overflow=hidden;rotatable=0;fontColor=#000000;fontFamily=Helvetica;fontSize=11;" parent="7" vertex="1">
                    <mxGeometry y="30" width="340" height="40" as="geometry"/>
                </mxCell>
                <mxCell id="11" value="BENDER LOAD INTERNAL PREP" style="swimlane;fontStyle=1;align=center;verticalAlign=middle;childLayout=stackLayout;horizontal=1;startSize=30;horizontalStack=0;resizeParent=0;resizeLast=1;container=0;fontColor=#000000;collapsible=0;rounded=1;arcSize=30;strokeColor=#00FF00;fillColor=#998A8A;swimlaneFillColor=#998A8A;dropTarget=0;" parent="1" vertex="1">
                    <mxGeometry x="-1331.1399999999999" y="670" width="202.09" height="80" as="geometry"/>
                </mxCell>
                <mxCell id="12" value="Align bender angle" style="text;html=1;strokeColor=none;fillColor=none;align=center;verticalAlign=middle;spacingLeft=4;spacingRight=4;whiteSpace=wrap;overflow=hidden;rotatable=0;fontColor=#000000;" parent="11" vertex="1">
                    <mxGeometry y="30" width="202.09" height="50" as="geometry"/>
                </mxCell>
                <mxCell id="13" value="Ground feed motor off&lt;br&gt;Bottom feed motor off&lt;br&gt;Belt motor off" style="text;html=1;strokeColor=none;fillColor=none;align=center;verticalAlign=middle;spacingLeft=4;spacingRight=4;whiteSpace=wrap;overflow=hidden;rotatable=0;fontColor=#000000;" parent="11" vertex="1">
                    <mxGeometry y="80" width="202.09" as="geometry"/>
                </mxCell>
                <mxCell id="14" value="Ground feed motor off&lt;br&gt;Bottom feed motor off&lt;br&gt;Belt motor off" style="text;html=1;strokeColor=none;fillColor=none;align=center;verticalAlign=middle;spacingLeft=4;spacingRight=4;whiteSpace=wrap;overflow=hidden;rotatable=0;fontColor=#000000;" parent="11" vertex="1">
                    <mxGeometry y="80" width="202.09" as="geometry"/>
                </mxCell>
                <mxCell id="16" style="edgeStyle=none;html=1;strokeColor=#00FF00;fontColor=#FF0000;exitX=1;exitY=0;exitDx=0;exitDy=0;" parent="1" source="12" target="EBAEPOP74e6jBe3k4iva-94" edge="1">
                    <mxGeometry relative="1" as="geometry">
                        <Array as="points">
                            <mxPoint x="-1090" y="700"/>
                            <mxPoint x="-1090" y="610"/>
                            <mxPoint x="-1000" y="610"/>
                        </Array>
                    </mxGeometry>
                </mxCell>
                <mxCell id="17" style="edgeStyle=none;html=1;strokeColor=#33FFFF;fontColor=#FF0000;" parent="1" source="EBAEPOP74e6jBe3k4iva-138" target="EBAEPOP74e6jBe3k4iva-125" edge="1">
                    <mxGeometry relative="1" as="geometry">
                        <mxPoint x="-610" y="980" as="targetPoint"/>
                        <Array as="points">
                            <mxPoint x="-735" y="790"/>
                            <mxPoint x="-620" y="790"/>
                            <mxPoint x="-620" y="1175"/>
                        </Array>
                    </mxGeometry>
                </mxCell>
                <mxCell id="22" style="edgeStyle=none;html=1;strokeColor=#00FF00;fontColor=#FF0000;" parent="1" source="EBAEPOP74e6jBe3k4iva-107" target="EBAEPOP74e6jBe3k4iva-110" edge="1">
                    <mxGeometry relative="1" as="geometry">
                        <Array as="points">
                            <mxPoint x="-770" y="960"/>
                            <mxPoint x="-700" y="960"/>
                            <mxPoint x="-700" y="990"/>
                        </Array>
                    </mxGeometry>
                </mxCell>
                <mxCell id="30" style="edgeStyle=none;html=1;strokeColor=#00FF00;fontColor=#FF0000;" parent="1" source="EBAEPOP74e6jBe3k4iva-54" target="EBAEPOP74e6jBe3k4iva-67" edge="1">
                    <mxGeometry relative="1" as="geometry"/>
                </mxCell>
                <mxCell id="31" style="edgeStyle=none;html=1;strokeColor=#33FFFF;fontColor=#FF0000;" parent="1" source="EBAEPOP74e6jBe3k4iva-54" target="EBAEPOP74e6jBe3k4iva-65" edge="1">
                    <mxGeometry relative="1" as="geometry">
                        <Array as="points">
                            <mxPoint x="-1120" y="535"/>
                            <mxPoint x="-1120" y="480"/>
                            <mxPoint x="-972" y="480"/>
                        </Array>
                    </mxGeometry>
                </mxCell>
                <mxCell id="34" style="edgeStyle=none;html=1;strokeColor=#FF0000;fontColor=#FF0000;exitX=1;exitY=0;exitDx=0;exitDy=0;" parent="1" source="EBAEPOP74e6jBe3k4iva-2" target="EBAEPOP74e6jBe3k4iva-36" edge="1">
                    <mxGeometry relative="1" as="geometry"/>
                </mxCell>
                <mxCell id="36" style="edgeStyle=none;html=1;strokeColor=#00FF00;fontColor=#FF0000;" parent="1" target="EBAEPOP74e6jBe3k4iva-105" edge="1">
                    <mxGeometry relative="1" as="geometry">
                        <mxPoint x="-1140" y="890" as="sourcePoint"/>
                    </mxGeometry>
                </mxCell>
                <mxCell id="41" style="edgeStyle=none;html=1;strokeColor=#33FFFF;fontColor=#FF0000;" parent="1" source="EBAEPOP74e6jBe3k4iva-131" target="EBAEPOP74e6jBe3k4iva-135" edge="1">
                    <mxGeometry relative="1" as="geometry"/>
                </mxCell>
                <mxCell id="45" style="edgeStyle=none;rounded=1;html=1;strokeColor=#00FF00;fontColor=#FF0000;" parent="1" source="EBAEPOP74e6jBe3k4iva-120" target="EBAEPOP74e6jBe3k4iva-125" edge="1">
                    <mxGeometry relative="1" as="geometry"/>
                </mxCell>
                <mxCell id="46" style="edgeStyle=none;rounded=1;html=1;strokeColor=#00FF00;fontColor=#FF0000;" parent="1" target="EBAEPOP74e6jBe3k4iva-116" edge="1">
                    <mxGeometry relative="1" as="geometry">
                        <mxPoint x="-1080" y="990" as="sourcePoint"/>
                    </mxGeometry>
                </mxCell>
                <mxCell id="55" style="edgeStyle=none;rounded=1;html=1;exitX=0;exitY=0;exitDx=0;exitDy=0;strokeColor=#00FF00;fontColor=#FF0000;entryX=0.775;entryY=-0.032;entryDx=0;entryDy=0;entryPerimeter=0;" parent="1" source="EBAEPOP74e6jBe3k4iva-98" target="EBAEPOP74e6jBe3k4iva-99" edge="1">
                    <mxGeometry relative="1" as="geometry">
                        <mxPoint x="-1210" y="779.826086956522" as="targetPoint"/>
                        <Array as="points">
                            <mxPoint x="-1204" y="780"/>
                        </Array>
                    </mxGeometry>
                </mxCell>
                <mxCell id="56" style="edgeStyle=none;rounded=1;html=1;strokeColor=#FF0000;fontColor=#FF0000;" parent="1" source="EBAEPOP74e6jBe3k4iva-40" target="EBAEPOP74e6jBe3k4iva-43" edge="1">
                    <mxGeometry relative="1" as="geometry">
                        <Array as="points">
                            <mxPoint x="-820" y="315"/>
                            <mxPoint x="-820" y="285"/>
                        </Array>
                    </mxGeometry>
                </mxCell>
                <mxCell id="59" style="edgeStyle=none;rounded=1;html=1;strokeColor=#FF0000;fontColor=#FF0000;" parent="1" source="6" target="EBAEPOP74e6jBe3k4iva-52" edge="1">
                    <mxGeometry relative="1" as="geometry">
                        <Array as="points">
                            <mxPoint x="-745" y="385"/>
                        </Array>
                    </mxGeometry>
                </mxCell>
                <mxCell id="61" value="" style="ellipse;html=1;" parent="1" vertex="1">
                    <mxGeometry x="-1265.09" y="80" width="30" height="30" as="geometry"/>
                </mxCell>
                <mxCell id="62" value="" style="endArrow=open;html=1;rounded=0;align=center;verticalAlign=top;endFill=0;labelBackgroundColor=none;endSize=6;entryX=0.5;entryY=0;entryDx=0;entryDy=0;" parent="1" source="61" target="EBAEPOP74e6jBe3k4iva-1" edge="1">
                    <mxGeometry relative="1" as="geometry">
                        <mxPoint x="-1230" y="65" as="targetPoint"/>
                    </mxGeometry>
                </mxCell>
                <mxCell id="63" value="Shooter Subsystem State Machine" style="text;html=1;strokeColor=none;fillColor=none;align=center;verticalAlign=middle;whiteSpace=wrap;rounded=0;fontSize=50;" parent="1" vertex="1">
                    <mxGeometry x="-1520" y="10" width="840" height="70" as="geometry"/>
                </mxCell>
            </root>
        </mxGraphModel>
    </diagram>
</mxfile>